<?xml version="1.0" encoding="UTF-8"?>
<svg width="700pt" height="700pt" version="1.1" viewBox="0 0 700 700" xmlns="http://www.w3.org/2000/svg" xmlns:xlink="http://www.w3.org/1999/xlink">
 <defs>
  <symbol id="t" overflow="visible">
   <path d="m3.6562-0.21875c-0.1875 0.09375-0.38672 0.16797-0.59375 0.21875-0.19922 0.050781-0.40625 0.078125-0.625 0.078125-0.66797 0-1.1992-0.17969-1.5938-0.54688-0.38672-0.375-0.57812-0.87891-0.57812-1.5156 0-0.64453 0.19141-1.1484 0.57812-1.5156 0.39453-0.375 0.92578-0.5625 1.5938-0.5625 0.21875 0 0.42578 0.027344 0.625 0.078125 0.20703 0.054687 0.40625 0.125 0.59375 0.21875v0.82812c-0.1875-0.125-0.375-0.21875-0.5625-0.28125-0.17969-0.0625-0.37109-0.09375-0.57812-0.09375-0.36719 0-0.65625 0.12109-0.875 0.35938-0.21094 0.23047-0.3125 0.55469-0.3125 0.96875 0 0.40625 0.10156 0.73047 0.3125 0.96875 0.21875 0.23047 0.50781 0.34375 0.875 0.34375 0.20703 0 0.39844-0.023437 0.57812-0.078125 0.1875-0.0625 0.375-0.16016 0.5625-0.29688z"/>
  </symbol>
  <symbol id="b" overflow="visible">
   <path d="m2.6875-2.1719c-0.085938-0.039063-0.16797-0.070313-0.25-0.09375-0.085938-0.019531-0.16797-0.03125-0.25-0.03125-0.25 0-0.44531 0.085937-0.57812 0.25-0.125 0.15625-0.1875 0.38281-0.1875 0.67188v1.375h-0.96875v-2.9844h0.96875v0.48438c0.11328-0.19531 0.25-0.33594 0.40625-0.42188 0.16406-0.09375 0.35938-0.14062 0.57812-0.14062h0.10938c0.039063 0 0.09375 0.007812 0.15625 0.015625z"/>
  </symbol>
  <symbol id="a" overflow="visible">
   <path d="m3.4375-1.5v0.26562h-2.2344c0.03125 0.23047 0.11328 0.40234 0.25 0.51562 0.13281 0.10547 0.32812 0.15625 0.57812 0.15625 0.20703 0 0.41406-0.023438 0.625-0.078125 0.20703-0.0625 0.42188-0.15625 0.64062-0.28125v0.73438c-0.21875 0.09375-0.44531 0.16406-0.67188 0.20312-0.23047 0.039062-0.45312 0.0625-0.67188 0.0625-0.54297 0-0.96484-0.13281-1.2656-0.40625-0.30469-0.28125-0.45312-0.67188-0.45312-1.1719 0-0.47656 0.14453-0.85938 0.4375-1.1406 0.30078-0.28125 0.70703-0.42188 1.2188-0.42188 0.46875 0 0.84375 0.14062 1.125 0.42188s0.42188 0.66406 0.42188 1.1406zm-0.96875-0.32812c0-0.17578-0.058594-0.31641-0.17188-0.42188-0.10547-0.11328-0.24219-0.17188-0.40625-0.17188-0.1875 0-0.33984 0.054687-0.45312 0.15625-0.11719 0.10547-0.1875 0.25-0.21875 0.4375z"/>
  </symbol>
  <symbol id="f" overflow="visible">
   <path d="m1.7969-1.3438c-0.19922 0-0.35156 0.039062-0.45312 0.10938-0.09375 0.0625-0.14062 0.16406-0.14062 0.29688 0 0.11719 0.035156 0.21094 0.10938 0.28125 0.082031 0.0625 0.19531 0.09375 0.34375 0.09375 0.17578 0 0.32812-0.0625 0.45312-0.1875s0.1875-0.28516 0.1875-0.48438v-0.10938zm1.4688-0.35938v1.7031h-0.96875v-0.4375c-0.125 0.17969-0.27344 0.30859-0.4375 0.39062-0.15625 0.082031-0.35156 0.125-0.57812 0.125-0.3125 0-0.57031-0.085938-0.76562-0.26562-0.1875-0.1875-0.28125-0.42188-0.28125-0.70312 0-0.35156 0.11719-0.61328 0.35938-0.78125 0.23828-0.16406 0.61719-0.25 1.1406-0.25h0.5625v-0.0625c0-0.15625-0.0625-0.26562-0.1875-0.32812-0.11719-0.070312-0.29688-0.10938-0.54688-0.10938-0.21094 0-0.40234 0.023437-0.57812 0.0625-0.17969 0.042969-0.33984 0.10156-0.48438 0.17188v-0.71875c0.19531-0.050781 0.39844-0.085938 0.60938-0.10938 0.20703-0.03125 0.41406-0.046875 0.625-0.046875 0.53906 0 0.92969 0.10938 1.1719 0.32812 0.23828 0.21094 0.35938 0.55469 0.35938 1.0312z"/>
  </symbol>
  <symbol id="d" overflow="visible">
   <path d="m1.5-3.8438v0.85938h0.98438v0.67188h-0.98438v1.2812c0 0.13672 0.023438 0.23047 0.078125 0.28125 0.0625 0.042969 0.17578 0.0625 0.34375 0.0625h0.48438v0.6875h-0.8125c-0.38672 0-0.65625-0.078125-0.8125-0.23438s-0.23438-0.42188-0.23438-0.79688v-1.2812h-0.46875v-0.67188h0.46875v-0.85938z"/>
  </symbol>
  <symbol id="k" overflow="visible">
   <path d="m2.5-2.5469v-1.6094h0.95312v4.1562h-0.95312v-0.4375c-0.13672 0.17969-0.28125 0.30859-0.4375 0.39062-0.15625 0.082031-0.33984 0.125-0.54688 0.125-0.375 0-0.68359-0.14453-0.92188-0.4375-0.23047-0.28906-0.34375-0.67188-0.34375-1.1406 0-0.45703 0.11328-0.83203 0.34375-1.125 0.23828-0.28906 0.54688-0.4375 0.92188-0.4375 0.19531 0 0.375 0.042969 0.53125 0.125 0.16406 0.085938 0.31641 0.21484 0.45312 0.39062zm-0.64062 1.9375c0.20703 0 0.36328-0.070313 0.46875-0.21875 0.11328-0.15625 0.17188-0.37891 0.17188-0.67188 0-0.28125-0.058594-0.49219-0.17188-0.64062-0.10547-0.15625-0.26172-0.23438-0.46875-0.23438-0.19922 0-0.35547 0.078125-0.46875 0.23438-0.10547 0.14844-0.15625 0.35938-0.15625 0.64062 0 0.29297 0.050781 0.51562 0.15625 0.67188 0.11328 0.14844 0.26953 0.21875 0.46875 0.21875z"/>
  </symbol>
  <symbol id="j" overflow="visible">
   <path d="m2.0469-0.60938c0.20703 0 0.36328-0.070313 0.46875-0.21875 0.11328-0.15625 0.17188-0.37891 0.17188-0.67188 0-0.28125-0.058594-0.49219-0.17188-0.64062-0.10547-0.15625-0.26172-0.23438-0.46875-0.23438-0.19922 0-0.35547 0.078125-0.46875 0.23438-0.10547 0.14844-0.15625 0.35938-0.15625 0.64062 0 0.29297 0.050781 0.51562 0.15625 0.67188 0.11328 0.14844 0.26953 0.21875 0.46875 0.21875zm-0.625-1.9375c0.125-0.17578 0.26562-0.30469 0.42188-0.39062 0.16406-0.082031 0.35156-0.125 0.5625-0.125 0.36328 0 0.66406 0.14844 0.90625 0.4375 0.23828 0.29297 0.35938 0.66797 0.35938 1.125 0 0.46875-0.12109 0.85156-0.35938 1.1406-0.24219 0.29297-0.54297 0.4375-0.90625 0.4375-0.21094 0-0.39844-0.042969-0.5625-0.125-0.15625-0.082031-0.29688-0.21094-0.42188-0.39062v0.4375h-0.96875v-4.1562h0.96875z"/>
  </symbol>
  <symbol id="i" overflow="visible">
   <path d="m0.0625-2.9844h0.95312l0.8125 2.0156 0.6875-2.0156h0.95312l-1.2656 3.2656c-0.125 0.33203-0.27344 0.56641-0.4375 0.70312-0.16797 0.13281-0.39062 0.20312-0.67188 0.20312h-0.54688v-0.64062h0.29688c0.16406 0 0.28516-0.027344 0.35938-0.078125 0.070313-0.054688 0.12891-0.14062 0.17188-0.26562l0.03125-0.09375z"/>
  </symbol>
  <symbol id="e" overflow="visible">
   <path d="m0.45312-2.9844h0.96875v2.9844h-0.96875zm0-1.1719h0.96875v0.78125h-0.96875z"/>
  </symbol>
  <symbol id="h" overflow="visible">
   <path d="m2.875-2.8906v0.76562c-0.125-0.082031-0.25781-0.14453-0.39062-0.1875-0.13672-0.039062-0.27344-0.0625-0.40625-0.0625-0.27344 0-0.48047 0.078125-0.625 0.23438-0.14844 0.15625-0.21875 0.37109-0.21875 0.64062 0 0.28125 0.070313 0.5 0.21875 0.65625 0.14453 0.15625 0.35156 0.23438 0.625 0.23438 0.14453 0 0.28516-0.019531 0.42188-0.0625 0.13281-0.039063 0.25781-0.10938 0.375-0.20312v0.78125c-0.14844 0.0625-0.29688 0.10156-0.45312 0.125-0.15625 0.03125-0.3125 0.046875-0.46875 0.046875-0.54297 0-0.96484-0.13281-1.2656-0.40625-0.30469-0.28125-0.45312-0.67188-0.45312-1.1719 0-0.48828 0.14844-0.86719 0.45312-1.1406 0.30078-0.28125 0.72266-0.42188 1.2656-0.42188 0.15625 0 0.3125 0.015625 0.46875 0.046875 0.15625 0.023437 0.30469 0.0625 0.45312 0.125z"/>
  </symbol>
  <symbol id="c" overflow="visible">
   <path d="m1.875-2.375c-0.21094 0-0.37109 0.078125-0.48438 0.23438-0.10547 0.14844-0.15625 0.35938-0.15625 0.64062 0 0.29297 0.050781 0.51562 0.15625 0.67188 0.11328 0.14844 0.27344 0.21875 0.48438 0.21875 0.20703 0 0.36719-0.070313 0.48438-0.21875 0.11328-0.15625 0.17188-0.37891 0.17188-0.67188 0-0.28125-0.058594-0.49219-0.17188-0.64062-0.11719-0.15625-0.27734-0.23438-0.48438-0.23438zm0-0.6875c0.51953 0 0.92188 0.14062 1.2031 0.42188 0.28906 0.27344 0.4375 0.65234 0.4375 1.1406 0 0.5-0.14844 0.89062-0.4375 1.1719-0.28125 0.27344-0.68359 0.40625-1.2031 0.40625-0.51172 0-0.91406-0.13281-1.2031-0.40625-0.29297-0.28125-0.4375-0.67188-0.4375-1.1719 0-0.48828 0.14453-0.86719 0.4375-1.1406 0.28906-0.28125 0.69141-0.42188 1.2031-0.42188z"/>
  </symbol>
  <symbol id="g" overflow="visible">
   <path d="m3.4688-1.8281v1.8281h-0.96875v-1.3906c0-0.25781-0.007812-0.4375-0.015625-0.53125-0.011719-0.10156-0.03125-0.17578-0.0625-0.21875-0.03125-0.0625-0.085937-0.10938-0.15625-0.14062-0.0625-0.039062-0.13281-0.0625-0.20312-0.0625-0.21094 0-0.37109 0.078125-0.48438 0.23438-0.10547 0.15625-0.15625 0.37109-0.15625 0.64062v1.4688h-0.96875v-2.9844h0.96875v0.4375c0.13281-0.17578 0.28516-0.30469 0.45312-0.39062 0.16406-0.082031 0.34375-0.125 0.53125-0.125 0.34375 0 0.60156 0.10938 0.78125 0.32812 0.1875 0.21094 0.28125 0.51172 0.28125 0.90625z"/>
  </symbol>
  <symbol id="s" overflow="visible">
   <path d="m1.2188-1.5312-1.0781-1.4531h1l0.625 0.875 0.60938-0.875h1.0156l-1.0781 1.4531 1.125 1.5312h-1l-0.67188-0.9375-0.67188 0.9375h-1.0156z"/>
  </symbol>
  <symbol id="r" overflow="visible">
   <path d="m2.4219-4.1562v0.625h-0.51562c-0.13672 0-0.23438 0.027344-0.29688 0.078125-0.054687 0.054687-0.078125 0.13672-0.078125 0.25v0.21875h0.82812v0.67188h-0.82812v2.3125h-0.95312v-2.3125h-0.46875v-0.67188h0.46875v-0.21875c0-0.32031 0.085937-0.5625 0.26562-0.71875 0.1875-0.15625 0.47266-0.23438 0.85938-0.23438z"/>
  </symbol>
  <symbol id="q" overflow="visible">
   <path d="m3.2344-2.5c0.11328-0.17578 0.25391-0.3125 0.42188-0.40625 0.16406-0.10156 0.35156-0.15625 0.5625-0.15625 0.33203 0 0.58594 0.10938 0.76562 0.32812 0.1875 0.21094 0.28125 0.51172 0.28125 0.90625v1.8281h-0.96875v-1.5625c0.007813-0.019531 0.015625-0.039062 0.015625-0.0625v-0.10938c0-0.21875-0.03125-0.375-0.09375-0.46875s-0.16406-0.14062-0.29688-0.14062c-0.1875 0-0.33594 0.078125-0.4375 0.23438-0.09375 0.14844-0.14062 0.35938-0.14062 0.64062v1.4688h-0.96875v-1.5625c0-0.33203-0.03125-0.54688-0.09375-0.64062-0.054688-0.09375-0.15234-0.14062-0.29688-0.14062-0.17969 0-0.32031 0.078125-0.42188 0.23438-0.09375 0.14844-0.14062 0.35938-0.14062 0.64062v1.4688h-0.96875v-2.9844h0.96875v0.4375c0.11328-0.17578 0.24219-0.30469 0.39062-0.39062 0.15625-0.082031 0.32812-0.125 0.51562-0.125 0.20703 0 0.39062 0.054688 0.54688 0.15625 0.15625 0.09375 0.27344 0.23047 0.35938 0.40625z"/>
  </symbol>
  <symbol id="p" overflow="visible">
   <path d="m3.4688-1.8281v1.8281h-0.96875v-1.3906c0-0.25781-0.007812-0.4375-0.015625-0.53125-0.011719-0.10156-0.03125-0.17578-0.0625-0.21875-0.03125-0.0625-0.085937-0.10938-0.15625-0.14062-0.0625-0.039062-0.13281-0.0625-0.20312-0.0625-0.21094 0-0.37109 0.078125-0.48438 0.23438-0.10547 0.15625-0.15625 0.37109-0.15625 0.64062v1.4688h-0.96875v-4.1562h0.96875v1.6094c0.13281-0.17578 0.28516-0.30469 0.45312-0.39062 0.16406-0.082031 0.34375-0.125 0.53125-0.125 0.34375 0 0.60156 0.10938 0.78125 0.32812 0.1875 0.21094 0.28125 0.51172 0.28125 0.90625z"/>
  </symbol>
  <symbol id="o" overflow="visible">
   <path d="m0.5-3.9844h1.1562l1.4375 2.7344v-2.7344h0.98438v3.9844h-1.1562l-1.4375-2.7344v2.7344h-0.98438z"/>
  </symbol>
  <symbol id="n" overflow="visible">
   <path d="m0.42188-1.1719v-1.8125h0.96875v0.29688 0.60938 0.48438c0 0.24219 0.003906 0.41797 0.015625 0.53125 0.007812 0.10547 0.03125 0.17969 0.0625 0.21875 0.039062 0.0625 0.09375 0.11719 0.15625 0.15625 0.0625 0.03125 0.13281 0.046875 0.21875 0.046875 0.19531 0 0.35156-0.078125 0.46875-0.23438 0.11328-0.15625 0.17188-0.36719 0.17188-0.64062v-1.4688h0.95312v2.9844h-0.95312v-0.4375c-0.14844 0.17969-0.30469 0.30859-0.46875 0.39062-0.15625 0.082031-0.33594 0.125-0.53125 0.125-0.34375 0-0.60938-0.10156-0.79688-0.3125-0.17969-0.21875-0.26562-0.53125-0.26562-0.9375z"/>
  </symbol>
  <symbol id="m" overflow="visible">
   <path d="m0.5-3.9844h1.7031c0.50781 0 0.89844 0.11719 1.1719 0.34375 0.26953 0.21875 0.40625 0.53906 0.40625 0.95312 0 0.41797-0.13672 0.74219-0.40625 0.96875-0.27344 0.21875-0.66406 0.32812-1.1719 0.32812h-0.67188v1.3906h-1.0312zm1.0312 0.75v1.1094h0.5625c0.19531 0 0.34766-0.046875 0.45312-0.14062 0.11328-0.10156 0.17188-0.24219 0.17188-0.42188 0-0.17578-0.058594-0.3125-0.17188-0.40625-0.10547-0.09375-0.25781-0.14062-0.45312-0.14062z"/>
  </symbol>
  <symbol id="l" overflow="visible">
   <path d="m0.45312-2.9844h0.96875v2.9375c0 0.39453-0.10156 0.69531-0.29688 0.90625-0.1875 0.21875-0.46484 0.32812-0.82812 0.32812h-0.48438v-0.64062h0.17188c0.17578 0 0.29688-0.042969 0.35938-0.125 0.070312-0.074219 0.10938-0.23047 0.10938-0.46875zm0-1.1719h0.96875v0.78125h-0.96875z"/>
  </symbol>
 </defs>
 <g>
  <path d="m447.88 266.43 13.871-13.871-15.844-14.91-13.871 13.867z"/>
  <path d="m456.79 59.457-23.254 9.3008-57.289 53.922v26.922l71.344-67.148z"/>
  <path d="m428.75 272.45v46.922l26.25 19.688 24.777-18.582-7.6719-7.2188h-0.003907c-6.1758 2.375-13.023 2.3281-19.168-0.13672-6.1445-2.4609-11.133-7.1523-13.961-13.137-2.832-5.9844-3.293-12.816-1.2969-19.129z"/>
  <path d="m407.66 201.65-31.414-29.562v20.41c0 1.9805-0.22656 3.9531-0.67188 5.8828l18.215 17.141z"/>
  <path d="m324.42 198.38c-0.44531-1.9297-0.67188-3.9023-0.67188-5.8828v-20.41l-31.41 29.562 13.867 13.871z"/>
  <path d="m350 201.25c4.832-0.003906 8.7461-3.918 8.75-8.75v-70c0-4.832-3.918-8.75-8.75-8.75s-8.75 3.918-8.75 8.75v70c0.003906 4.832 3.918 8.7461 8.75 8.75z"/>
  <path d="m456.5 294.94c3.418 3.418 8.957 3.418 12.375 0l18.562-18.562c1.6719-1.6328 2.6172-3.8672 2.6328-6.207 0.011719-2.3359-0.91016-4.582-2.5625-6.2344-1.6523-1.6523-3.8984-2.5781-6.2383-2.5625-2.3359 0.011718-4.5703 0.96094-6.207 2.6289l-18.562 18.562c-3.4102 3.418-3.4102 8.957 0 12.375z"/>
  <path d="m323.75 122.68-57.289-53.922-23.254-9.3008 9.1992 22.996 71.344 67.148z"/>
  <path d="m245 402.5c-1.8945 0-3.7344-0.61328-5.25-1.75l-21-15.75v21.875l26.25 19.688 26.25-19.688v-21.875l-21 15.75c-1.5156 1.1367-3.3555 1.75-5.25 1.75z"/>
  <path d="m315 490c-1.8945 0-3.7344-0.61328-5.25-1.75l-21-15.75v35h52.5v-35l-21 15.75c-1.5156 1.1367-3.3555 1.75-5.25 1.75z"/>
  <path d="m315 446.25c-1.8945 0-3.7344-0.61328-5.25-1.75l-21-15.75v21.875l26.25 19.688 26.25-19.688v-21.875l-21 15.75c-1.5156 1.1367-3.3555 1.75-5.25 1.75z"/>
  <path d="m296 242.44c3.4141-3.418 3.4141-8.957 0-12.371l-18.562-18.562c-3.418-3.418-8.957-3.418-12.375 0-3.418 3.418-3.418 8.957 0 12.375l18.562 18.562v-0.003906c1.6406 1.6406 3.8633 2.5625 6.1875 2.5625 2.3203 0 4.543-0.92188 6.1875-2.5625z"/>
  <path d="m315 315c-1.8945 0-3.7344-0.61328-5.25-1.75l-21-15.75v21.875l26.25 19.688 26.25-19.688v-21.875l-21 15.75c-1.5156 1.1367-3.3555 1.75-5.25 1.75z"/>
  <path d="m263.56 288.75c0.003906 8.6445-4.25 16.734-11.375 21.629-7.125 4.8945-16.203 5.9648-24.27 2.8594l-7.6953 7.2422 24.777 18.582 26.25-19.688v-46.922l-8.9023 8.3789c0.80859 2.5625 1.2148 5.2305 1.2148 7.918z"/>
  <path d="m315 402.5c-1.8945 0-3.7344-0.61328-5.25-1.75l-21-15.75v21.875l26.25 19.688 26.25-19.688v-21.875l-21 15.75c-1.5156 1.1367-3.3555 1.75-5.25 1.75z"/>
  <path d="m315 358.75c-1.8945 0-3.7344-0.61328-5.25-1.75l-21-15.75v21.875l26.25 19.688 26.25-19.688v-21.875l-21 15.75c-1.5156 1.1367-3.3555 1.75-5.25 1.75z"/>
  <path d="m245 358.75c-1.8945 0-3.7344-0.61328-5.25-1.75l-21-15.75v21.875l26.25 19.688 26.25-19.688v-21.875l-21 15.75c-1.5156 1.1367-3.3555 1.75-5.25 1.75z"/>
  <path d="m200.01 288.55-42.672 40.164 13.871 13.871 42.664-40.152-13.684-13.684c-0.0625-0.0625-0.11719-0.13281-0.17969-0.19922z"/>
  <path d="m231.12 294.94c1.6406 1.6406 3.8633 2.5625 6.1875 2.5625 2.3203 0 4.543-0.92188 6.1875-2.5625 3.4141-3.418 3.4141-8.957 0-12.371l-18.562-18.562c-3.418-3.418-8.957-3.418-12.375 0-3.418 3.418-3.418 8.957 0 12.375z"/>
  <path d="m106.06 352.56c-3.4141 3.418-3.4141 8.957 0 12.375l27.75 27.75c3.418 3.4141 8.957 3.4141 12.375 0l25.188-25.188-40.125-40.125z"/>
  <path d="m267.96 251.52-13.871-13.867-15.844 14.91 13.871 13.871z"/>
  <path d="m245 446.25c-1.8945 0-3.7344-0.61328-5.25-1.75l-21-15.75v21.875l26.25 19.688 26.25-19.688v-21.875l-21 15.75c-1.5156 1.1367-3.3555 1.75-5.25 1.75z"/>
  <path d="m245 490c-1.8945 0-3.7344-0.61328-5.25-1.75l-21-15.75v35h52.5v-35l-21 15.75c-1.5156 1.1367-3.3555 1.75-5.25 1.75z"/>
  <path d="m308.37 254.81c-4.918 4.9258-11.598 7.6875-18.559 7.6758-0.35547 0-0.70703-0.035156-1.0625-0.050781v13.188l26.25 19.688 26.25-19.688v-0.75l-27.602-27.602v-0.003907c-1.3008 2.8047-3.0859 5.3594-5.2773 7.543z"/>
  <path d="m365.94 213.34c-4.5742 3.5078-10.176 5.4102-15.938 5.4102s-11.363-1.9023-15.938-5.4102l-15.246 14.352 31.184 31.184 31.184-31.184z"/>
  <path d="m391.63 254.81c-2.1836-2.1953-3.9609-4.7578-5.2461-7.5703l-27.633 27.633v0.75l26.25 19.688 26.25-19.688v-13.152c-0.35156 0.015625-0.70703 0.027344-1.0625 0.027344-6.9648 0.019531-13.648-2.75-18.559-7.6875z"/>
  <path d="m437.5 217.69c0-3.5352-2.1328-6.7266-5.4023-8.082-3.2695-1.3555-7.0312-0.60547-9.5352 1.8945l-18.562 18.562c-1.6562 1.6367-2.5938 3.8672-2.5977 6.1992-0.007813 2.3281 0.91406 4.5664 2.5625 6.2109 1.6445 1.6484 3.8828 2.5703 6.2109 2.5664 2.332-0.007812 4.5625-0.94531 6.1992-2.6016l18.562-18.562c1.6445-1.6367 2.5703-3.8633 2.5625-6.1875z"/>
  <path d="m385 315c-1.8945 0-3.7344-0.61328-5.25-1.75l-21-15.75v21.875l26.25 19.688 26.25-19.688v-21.875l-21 15.75c-1.5156 1.1367-3.3555 1.75-5.25 1.75z"/>
  <path d="m455 490c-1.8945 0-3.7344-0.61328-5.25-1.75l-21-15.75v35h52.5v-35l-21 15.75c-1.5156 1.1367-3.3555 1.75-5.25 1.75z"/>
  <path d="m385 402.5c-1.8945 0-3.7344-0.61328-5.25-1.75l-21-15.75v21.875l26.25 19.688 26.25-19.688v-21.875l-21 15.75c-1.5156 1.1367-3.3555 1.75-5.25 1.75z"/>
  <path d="m385 490c-1.8945 0-3.7344-0.61328-5.25-1.75l-21-15.75v35h52.5v-35l-21 15.75c-1.5156 1.1367-3.3555 1.75-5.25 1.75z"/>
  <path d="m385 446.25c-1.8945 0-3.7344-0.61328-5.25-1.75l-21-15.75v21.875l26.25 19.688 26.25-19.688v-21.875l-21 15.75c-1.5156 1.1367-3.3555 1.75-5.25 1.75z"/>
  <path d="m385 358.75c-1.8945 0-3.7344-0.61328-5.25-1.75l-21-15.75v21.875l26.25 19.688 26.25-19.688v-21.875l-21 15.75c-1.5156 1.1367-3.3555 1.75-5.25 1.75z"/>
  <path d="m455 446.25c-1.8945 0-3.7344-0.61328-5.25-1.75l-21-15.75v21.875l26.25 19.688 26.25-19.688v-21.875l-21 15.75c-1.5156 1.1367-3.3555 1.75-5.25 1.75z"/>
  <path d="m542.66 328.71-42.668-40.156c-0.0625 0.0625-0.12109 0.12891-0.18359 0.19531l-13.68 13.68 42.656 40.152z"/>
  <path d="m455 358.75c-1.8945 0-3.7344-0.61328-5.25-1.75l-21-15.75v21.875l26.25 19.688 26.25-19.688v-21.875l-21 15.75c-1.5156 1.1367-3.3555 1.75-5.25 1.75z"/>
  <path d="m455 402.5c-1.8945 0-3.7344-0.61328-5.25-1.75l-21-15.75v21.875l26.25 19.688 26.25-19.688v-21.875l-21 15.75c-1.5156 1.1367-3.3555 1.75-5.25 1.75z"/>
  <path d="m568.75 327.38-40.125 40.125 25.191 25.188h-0.003906c3.418 3.418 8.957 3.418 12.375 0l27.75-27.75c1.6406-1.6406 2.5625-3.8672 2.5625-6.1875s-0.92188-4.5469-2.5625-6.1875z"/>
  <path d="m605.87 157.24c-2.25 0.5625-4.6328 0.21094-6.625-0.98438-1.9883-1.1953-3.4219-3.1289-3.9844-5.3828-0.29688-1.0938-7.9727-28.371-44.012-28.371-18.703 0-29.738 9.1992-42.523 19.852-13.445 11.199-28.68 23.898-53.727 23.898-19.293 0-35.734-7.8086-47.293-22.234l12.785-12.031c8.3242 11.133 19.906 16.766 34.508 16.766 18.703 0 29.738-9.1992 42.523-19.852 13.445-11.199 28.68-23.898 53.727-23.898 25.879 0 41.059 11.145 49.242 20.484 5.4336 6.0898 9.4492 13.312 11.746 21.145 0.5625 2.25 0.21094 4.6328-0.98438 6.625-1.1953 1.9883-3.1289 3.4219-5.3828 3.9844z"/>
  <use x="70" y="576.40625" xlink:href="#t"/>
  <use x="74.011719" y="576.40625" xlink:href="#b"/>
  <use x="76.710938" y="576.40625" xlink:href="#a"/>
  <use x="80.417969" y="576.40625" xlink:href="#f"/>
  <use x="84.109375" y="576.40625" xlink:href="#d"/>
  <use x="86.722656" y="576.40625" xlink:href="#a"/>
  <use x="90.433594" y="576.40625" xlink:href="#k"/>
  <use x="96.25" y="576.40625" xlink:href="#j"/>
  <use x="100.167969" y="576.40625" xlink:href="#i"/>
  <use x="105.636719" y="576.40625" xlink:href="#e"/>
  <use x="107.507812" y="576.40625" xlink:href="#h"/>
  <use x="110.75" y="576.40625" xlink:href="#c"/>
  <use x="114.507812" y="576.40625" xlink:href="#g"/>
  <use x="118.402344" y="576.40625" xlink:href="#e"/>
  <use x="120.277344" y="576.40625" xlink:href="#s"/>
  <use x="123.804688" y="576.40625" xlink:href="#f"/>
  <use x="127.492188" y="576.40625" xlink:href="#b"/>
  <use x="70" y="581.875" xlink:href="#r"/>
  <use x="72.378906" y="581.875" xlink:href="#b"/>
  <use x="75.078125" y="581.875" xlink:href="#c"/>
  <use x="78.832031" y="581.875" xlink:href="#q"/>
  <use x="86.4375" y="581.875" xlink:href="#d"/>
  <use x="89.050781" y="581.875" xlink:href="#p"/>
  <use x="92.941406" y="581.875" xlink:href="#a"/>
  <use x="98.554688" y="581.875" xlink:href="#o"/>
  <use x="103.132812" y="581.875" xlink:href="#c"/>
  <use x="106.890625" y="581.875" xlink:href="#n"/>
  <use x="110.785156" y="581.875" xlink:href="#g"/>
  <use x="116.582031" y="581.875" xlink:href="#m"/>
  <use x="120.589844" y="581.875" xlink:href="#b"/>
  <use x="123.285156" y="581.875" xlink:href="#c"/>
  <use x="127.042969" y="581.875" xlink:href="#l"/>
  <use x="128.917969" y="581.875" xlink:href="#a"/>
  <use x="132.625" y="581.875" xlink:href="#h"/>
  <use x="135.867188" y="581.875" xlink:href="#d"/>
 </g>
</svg>
