<?xml version="1.0" encoding="UTF-8"?>
<svg width="700pt" height="700pt" version="1.1" viewBox="0 0 700 700" xmlns="http://www.w3.org/2000/svg">
 <path d="m280.52 177.02h6.5742v-47.145h-33.758c-21.832 0-41.684-8.9297-56.055-23.301s-23.309-34.223-23.309-56.055v-20.676c0-6.1836 5.0117-11.199 11.199-11.199h329.67c6.1836 0 11.199 5.0117 11.199 11.199v20.676c0 21.801-8.9492 41.648-23.363 56.055-14.379 14.371-34.23 23.301-56.043 23.301h-33.738v47.145h6.5938c29.273 0 55.938 12.012 75.262 31.344 19.293 19.312 31.285 45.949 31.285 75.238v151.21c0 29.273-11.992 55.918-31.312 75.23-19.273 19.328-45.922 31.312-75.238 31.312h-138.96c-29.281 0-55.93-11.984-75.242-31.305-19.32-19.266-31.305-45.91-31.305-75.238v-151.21c0-29.328 11.984-55.988 31.285-75.289l0.67969-0.62891c19.262-18.938 45.633-30.664 74.582-30.664zm52.629 179.98-27.762-30.168c-4.1719-4.5391-3.8828-11.613 0.65625-15.789 4.5391-4.1719 11.613-3.8828 15.789 0.65625l27.832 30.254c0.98047-0.14453 1.9766-0.23047 2.9961-0.23047 5.5625 0 10.617 2.2695 14.254 5.9062l0.84766 0.95313c3.1484 3.5586 5.0586 8.2148 5.0586 13.301 0 5.5625-2.2695 10.617-5.9062 14.254-3.6367 3.6367-8.6914 5.9062-14.254 5.9062-5.5078 0-10.551-2.2734-14.195-5.9414-3.6719-3.6172-5.9258-8.6562-5.9258-14.219 0-1.6797 0.21094-3.3125 0.60938-4.8828zm-136.76-305.04h307.23l0.019531-1.4414v-9.4766h-307.27v9.4766zm302 22.395h-296.75c2.8516 6.1172 6.7539 11.66 11.477 16.383 10.324 10.324 24.57 16.742 40.223 16.742h193.29c15.695 0 29.969-6.4141 40.301-16.742 4.7148-4.7148 8.6133-10.258 11.457-16.383zm-56.891 295.99h-14.371c-6.1445 0-11.133-4.9883-11.133-11.133 0-6.1445 4.9883-11.133 11.133-11.133h14.371c-2.5273-21.02-12.125-39.863-26.324-54.066-14.199-14.199-33.043-23.797-54.059-26.324v14.379c0 6.1445-4.9883 11.133-11.133 11.133-6.1445 0-11.133-4.9883-11.133-11.133v-14.379c-21.008 2.5273-39.844 12.117-54.059 26.332-14.199 14.199-23.797 33.043-26.324 54.059h14.371c6.1445 0 11.133 4.9883 11.133 11.133 0 6.1445-4.9883 11.133-11.133 11.133h-14.371c2.5273 21.027 12.105 39.863 26.293 54.043 14.219 14.227 33.066 23.812 54.09 26.336v-14.379c0-6.1445 4.9883-11.133 11.133-11.133 6.1445 0 11.133 4.9883 11.133 11.133v14.379c21.012-2.5273 39.852-12.125 54.051-26.324 14.215-14.215 23.805-33.051 26.332-54.059zm-132.01-240.46v47.145h81.004v-47.145zm40.492 114.75c31.648 0 60.301 12.832 81.023 33.555s33.555 49.383 33.555 81.031c0 31.637-12.824 60.289-33.562 81.023-20.723 20.723-49.375 33.555-81.02 33.555-31.562 0-60.215-12.832-80.965-33.566l-0.074218-0.074218c-20.723-20.75-33.539-49.387-33.539-80.938 0-31.641 12.832-60.301 33.555-81.023 20.734-20.734 49.387-33.562 81.023-33.562zm69.504-45.207h-138.96c-22.906 0-43.715 9.2383-58.887 24.148l-0.54297 0.58203c-15.254 15.254-24.723 36.312-24.723 59.457v151.21c0 23.145 9.4727 44.184 24.719 59.43 15.219 15.273 36.258 24.719 59.434 24.719h138.96c23.129 0 44.176-9.4727 59.43-24.723 15.273-15.219 24.723-36.254 24.723-59.422v-151.21c0-23.168-9.4766-44.234-24.723-59.496-15.227-15.234-36.273-24.691-59.43-24.691z"/>
</svg>
